<?xml version="1.0" encoding="utf-8"?>
<!DOCTYPE svg PUBLIC "-//W3C//DTD SVG 1.1//EN" "http://www.w3.org/Graphics/SVG/1.1/DTD/svg11.dtd">
<svg version="1.1" id="Layer_1" xmlns="http://www.w3.org/2000/svg" xmlns:xlink="http://www.w3.org/1999/xlink" x="0px" y="0px"
	 viewBox="0 0 2827.9922 2827.9922" enable-background="new 0 0 2827.9922 2827.9922" xml:space="preserve">
<g>
	<path fill="#88201F" d="M2827.9922,2827.9844c-942.6575,0.0039-1885.3191,0.0039-2827.9844,0.0078
		C0.0038,1885.3347,0.0038,942.6731,0,0.0077C942.6577,0.0038,1885.3193,0.0038,2827.9844,0
		C2827.9883,942.6577,2827.9883,1885.3193,2827.9922,2827.9844z M1427.2932,2651.45c6.6655,0,13.3345,0.1296,19.9961-0.0359
		c6.9939-0.1733,13.9778-0.7136,20.9709-0.9487c71.7664-2.4128,142.8083-11.0759,213.1199-25.4553
		c147.9429-30.2561,286.8638-83.8892,415.8115-162.6135c196.3655-119.8826,350.6514-280.0762,459.4211-483.2014
		c88.6616-165.5737,135.0159-342.6616,140.8848-530.262c2.6333-84.1802-4.0408-167.7588-19.1699-250.6763
		c-20.958-114.864-57.8259-224.3686-110.9304-328.2647c-93.2476-182.4336-224.1094-332.7399-390.959-451.2136
		c-209.5815-148.8163-443.7568-227.4681-700.1567-240.0956c-63.2668-3.1158-126.5544-1.4281-189.7124,4.8261
		c-64.7646,6.4134-128.8066,16.8343-191.8452,32.8742c-264.8535,67.3907-488.9073,202.2041-667.1161,409.8412
		c-179.6158,209.2764-277.6333,452.5078-292.9388,728.2658c-4.6857,84.4219,0.1804,168.554,13.7981,252.0684
		c14.0968,86.4524,37.246,170.4248,69.7222,251.8079c40.1259,100.5527,92.8302,194.0278,157.7687,280.6213
		c65.1448,86.8684,140.3964,163.9104,225.4317,231.3972c82.36,65.3635,171.4227,119.8181,267.1223,163.3547
		c115.3931,52.4958,235.8942,87.4302,361.4711,104.9856C1295.4548,2647.8779,1361.2234,2651.9094,1427.2932,2651.45z"/>
	<path fill="#FEE500" d="M1427.2932,2651.45c-66.0698,0.4595-131.8384-3.572-197.3101-12.7246
		c-125.5769-17.5554-246.078-52.4897-361.4711-104.9856c-95.6996-43.5366-184.7623-97.9912-267.1223-163.3547
		c-85.0353-67.4868-160.2869-144.5288-225.4317-231.3972c-64.9385-86.5935-117.6429-180.0686-157.7687-280.6213
		c-32.4763-81.3831-55.6254-165.3555-69.7222-251.8079c-13.6177-83.5144-18.4838-167.6465-13.7981-252.0684
		c15.3055-275.7581,113.3231-518.9894,292.9388-728.2658c178.2088-207.6371,402.2626-342.4506,667.1161-409.8412
		c63.0386-16.0399,127.0806-26.4608,191.8452-32.8742c63.158-6.2542,126.4456-7.9419,189.7124-4.8261
		c256.3999,12.6275,490.5752,91.2793,700.1567,240.0956c166.8496,118.4737,297.7114,268.78,390.959,451.2136
		c53.1045,103.8961,89.9724,213.4007,110.9304,328.2647c15.1292,82.9175,21.8032,166.4961,19.1699,250.6763
		c-5.8689,187.6003-52.2231,364.6882-140.8848,530.262c-108.7698,203.1252-263.0557,363.3188-459.4211,483.2014
		c-128.9478,78.7244-267.8687,132.3574-415.8115,162.6135c-70.3115,14.3794-141.3535,23.0425-213.1199,25.4553
		c-6.9932,0.2351-13.9771,0.7754-20.9709,0.9487C1440.6277,2651.5796,1433.9587,2651.45,1427.2932,2651.45z M1476.1411,1333.989
		c0,19.3286-0.1548,38.6587,0.0486,57.9851c0.1646,15.6563,0.3442,31.333,1.2842,46.9546
		c0.9065,15.0654,9.1499,22.4739,24.052,23.1208c18.6421,0.8098,37.2651,2.0398,55.9414,2.0269
		c7.8882-0.0056,7.8921,0.2207,8.2371,8.4485c0.1116,2.6636,0.1157,5.3345,0.3091,7.9919
		c3.1985,43.978,16.925,84.022,44.6621,118.7542c23.3411,29.2283,52.8608,50.5452,86.4202,66.4424
		c42.6353,20.1965,87.8396,30.7109,134.6538,34.9421c53.8105,4.8633,107.468,3.3027,159.8479-10.114
		c136.6067-34.9912,230.8374-119.6106,285.6106-248.793c11.2661-26.5713,18.0308-54.4138,14.6956-83.7463
		c-0.4563-4.0127,0.6768-6.2942,4.5308-7.415c2.5522-0.7422,5.0303-1.7454,7.5269-2.6719
		c53.801-19.9678,105.9248-43.5356,155.5281-72.5056c2.873-1.678,5.7656-3.3616,8.4434-5.3237
		c3.1638-2.3184,5.0415-5.5037,3.8167-9.53c-1.322-4.3474-4.7961-6.1406-9.1001-6.5747c-3.8579-0.3894-7.158,1.1426-10.3691,3.0054
		c-31.5525,18.3037-65.2676,31.6533-99.7388,43.1777c-87.0715,29.1091-176.6909,47.6423-266.8623,63.7944
		c-48.8455,8.7495-97.9053,16.1663-147.062,22.9536c-45.8689,6.3333-91.825,11.9546-137.8569,16.9448
		c-40.0791,4.3447-80.1953,8.3738-120.4175,11.1289c-34.9167,2.3914-69.8772,4.3208-104.8391,0.7715
		c-10.927-1.1094-21.7944-2.7363-32.1228-6.9033c-8.1216-3.2766-12.5342-8.5969-13.7473-17.7383
		c-7.2419-54.571-11.4189-109.3401-11.7715-164.3892c-0.2051-32.0225,1.1433-63.9546,5.9648-95.675
		c2.5591-16.835,6.4163-33.3113,12.1858-49.3618c2.9077-8.0898,0.0259-11.8889-8.6021-12.2983
		c-8.9758-0.426-13.9253,2.8198-17.418,11.7134c-8.6619,22.0554-15.1213,44.7695-20.0337,67.9314
		C1477.0178,1210.0505,1474.9685,1271.9209,1476.1411,1333.989z M462.9587,868.8456c-3.3888,2.7473-3.9899,6.1888-5.6306,9.0275
		c-6.2385,10.7939-3.8879,20.0521,3.902,29.1214c8.0479,9.3698,16.4799,18.3313,25.2564,27.0011
		c20.3875,20.1398,42.0388,39.0085,61.2706,60.3041c14.7545,16.3378,29.7981,32.3841,46.2532,47.0103
		c4.3468,3.8638,5.4332,7.124,3.4265,12.8071c-13.7,38.7986-22.3533,78.7256-26.0153,119.7454
		c-5.1503,57.6934-1.4471,114.5942,16.4191,169.9458c35.0786,108.6777,107.0397,179.9038,217.4406,210.7952
		c47.455,13.2786,96.0218,14.7478,144.7546,8.7244c37.265-4.6062,73.1546-14.4221,106.7628-31.5564
		c29.5005-15.04,55.1694-34.7849,74.7371-61.8862c21.8379-30.2456,31.2373-64.4038,31.8379-101.2822
		c0.1626-9.9807,0.04-8.9626,9.4954-8.6526c16.3188,0.5349,32.634,1.3418,48.9568,1.5437
		c19.9746,0.2473,39.958,1.2961,59.9116-1.2915c24.6951-3.2024,43.9365-14.4536,56.6963-36.2361
		c6.0835-10.3857,10.9009-21.3247,15.457-32.4258c32.4189-78.9873,58.2153-160.1394,79.4888-242.7739
		c1.9924-7.7388,3.9543-15.4854,5.9475-23.2239c0.7942-3.0828,1.2168-5.9648-2.6528-7.406
		c-8.9768-3.3436-21.0151,2.679-23.9885,12.0386c-1.4111,4.4412-2.6655,8.9395-4.2603,13.3135
		c-30.7595,84.363-68.5708,165.4409-113.5842,243.1409c-3.9995,6.9038-8.8904,13.2861-13.2141,20.0088
		c-5.7039,8.8687-14.0046,12.6221-24.2563,13.616c-17.0303,1.6506-33.9797,0.6091-50.8711-1.1514
		c-44.1233-4.5989-87.5913-13.0928-130.699-23.3608c-53.1859-12.6687-105.3828-27.6565-154.0931-53.8933
		c-76.1354-41.009-149.9774-85.3406-217.7139-139.332c-46.1893-36.8164-89.1149-77.3052-131.6373-118.1966
		c-37.4689-36.0318-75.1195-71.9517-106.7144-113.5342C465.0756,870.0411,464.0688,869.6307,462.9587,868.8456z
		 M1262.9373,1744.0818c-72.0205,0.0225-144.3818,11.8467-215.332,33.1484c-71.0207,21.323-138.7309,50.7991-205.3948,82.8894
		c-12.5712,6.0513-12.7137,6.5679-6.3121,19.0381c5.0096,9.7588,7.1268,10.489,16.9247,5.3081
		c100.9932-53.4031,209.2883-79.7397,322.7507-85.9263c56.6887-3.0911,113.2483-0.5391,169.323,9.4043
		c47.1133,8.354,92.9448,20.9028,135.7935,42.5815c92.5303,46.8145,173.5972,108.9873,244.5496,184.4312
		c33.1338,35.2314,60.6511,74.2373,78.4915,119.6016c10.3735,26.3784,18.8579,53.3418,26.2522,80.675
		c5.9971,22.1697,11.9451,44.353,18.0715,66.4871c1.6865,6.0938,3.9441,12.0435,7.2717,17.4741
		c2.2866,3.7322,4.7568,7.6279,10.1162,6.3525c4.9412-1.1763,5.3142-5.4089,5.6611-9.4597
		c0.7107-8.2996,1.4922-16.5967,2.0039-24.9094c2.1328-34.6387,2.5996-69.2139-2.3594-103.7297
		c-6.3101-43.9192-19.8992-85.5522-38.9292-125.4377c-19.6992-41.2881-41.7771-81.1711-72.2668-115.7661
		c-41.033-46.5574-90.3311-82.5271-144.0093-113.011C1506.8445,1771.5029,1389.2085,1745.1416,1262.9373,1744.0818z
		 M1785.1079,1799.3081c-9.9729-1.0154-19.5007-2.3652-28.9363-4.5735c-27.6978-6.4824-52.4543-19.3411-75.3389-35.7407
		c-58.3958-41.8481-102.8076-95.3364-132.332-160.988c-3.6238-8.0581-6.1167-9.3862-14.6599-7.5332
		c-1.9443,0.4216-3.8613,1.0735-5.7078,1.8235c-8.3569,3.3928-9.1062,5.1072-5.4954,13.4133
		c8.1399,18.7234,18.3889,36.2646,30.8271,52.4214c53.0796,68.9475,121.8972,116.3467,202.4702,147.6987
		C1767.5225,1810.3386,1776.2156,1805.1619,1785.1079,1799.3081z M923.3218,1643.1077c27.336-1.1077,52.6597-4.7561,77.5253-11.2771
		c59.4649-15.5945,111.5806-44.4751,156.2149-86.7915c2.4241-2.2986,4.9023-4.6277,6.1289-7.7905
		c1.6812-4.3345,1.6155-8.5283-2.334-11.7903c-3.2261-2.6641-7.8987-2.4309-11.8726,0.8162
		c-2.3071,1.885-4.2805,4.1858-6.3538,6.3477c-10.6023,11.0552-21.3723,21.9353-32.7939,32.158
		c-40.8376,36.5503-88.1318,58.9761-142.7181,65.7832c-14.2303,1.7747-28.5177,2.3035-42.7836,3.3564
		c-3.9662,0.2927-9.6276,1.1677-9.3185,5.4907C915.3512,1644.0923,921.2498,1642.6858,923.3218,1643.1077z"/>
	<path fill="#050402" d="M1476.1411,1333.989c-1.1726-62.0681,0.8767-123.9385,13.8176-184.9526
		c4.9124-23.1619,11.3718-45.876,20.0337-67.9314c3.4927-8.8936,8.4421-12.1394,17.418-11.7134
		c8.6279,0.4094,11.5098,4.2085,8.6021,12.2983c-5.7695,16.0505-9.6267,32.5269-12.1858,49.3618
		c-4.8215,31.7205-6.1699,63.6526-5.9648,95.675c0.3525,55.0491,4.5295,109.8181,11.7715,164.3892
		c1.2131,9.1414,5.6257,14.4617,13.7473,17.7383c10.3284,4.167,21.1958,5.7939,32.1228,6.9033
		c34.9619,3.5493,69.9224,1.6199,104.8391-0.7715c40.2222-2.7551,80.3384-6.7842,120.4175-11.1289
		c46.032-4.9902,91.988-10.6116,137.8569-16.9448c49.1567-6.7874,98.2166-14.2041,147.062-22.9536
		c90.1714-16.1521,179.7908-34.6853,266.8623-63.7944c34.4712-11.5244,68.1863-24.874,99.7388-43.1777
		c3.2112-1.8628,6.5112-3.3948,10.3691-3.0054c4.304,0.4341,7.7781,2.2273,9.1001,6.5747c1.2249,4.0264-0.6528,7.2117-3.8167,9.53
		c-2.6777,1.9622-5.5703,3.6458-8.4434,5.3237c-49.6033,28.97-101.7271,52.5378-155.5281,72.5056
		c-2.4966,0.9265-4.9746,1.9297-7.5269,2.6719c-3.854,1.1208-4.9871,3.4023-4.5308,7.415
		c3.3352,29.3325-3.4294,57.175-14.6956,83.7463c-54.7732,129.1824-149.0039,213.8018-285.6106,248.793
		c-52.3799,13.4167-106.0374,14.9773-159.8479,10.114c-46.8142-4.2312-92.0186-14.7456-134.6538-34.9421
		c-33.5593-15.8972-63.0791-37.2141-86.4202-66.4424c-27.7371-34.7322-41.4636-74.7761-44.6621-118.7542
		c-0.1934-2.6575-0.1975-5.3284-0.3091-7.9919c-0.345-8.2278-0.3489-8.4541-8.2371-8.4485
		c-18.6763,0.0129-37.2993-1.217-55.9414-2.0269c-14.9021-0.647-23.1455-8.0554-24.052-23.1208
		c-0.9399-15.6216-1.1196-31.2983-1.2842-46.9546C1475.9863,1372.6477,1476.1411,1353.3176,1476.1411,1333.989z M1671.033,1463.1172
		c-24.1958,0.887-47.8286,0.7927-71.4539,1.1008c-7.4739,0.0974-7.6658,0.2249-7.1873,8.0549
		c2.0635,33.7693,10.5813,65.655,28.4148,94.677c28.8154,46.8923,71.5464,76.5559,122.1021,94.9604
		c79.1675,28.8203,160.2217,31.6973,241.7061,11.3152c69.885-17.4807,131.168-51.3032,182.7415-102.0354
		c40.2427-39.5859,66.5535-87.8337,86.8306-139.822c3.7581-9.634,6.6943-19.5305,8.8855-29.6238
		c2.8049-12.9185,4.3977-25.9241,1.9392-40.0933c-127.7656,42.3774-258.7571,65.9563-391.5571,83.3062
		c0.9121,1.5493,1.0083,1.9521,1.2556,2.0962c3.1455,1.8354,6.3408,3.5864,9.4692,5.4495
		c20.8689,12.4272,34.4897,30.1099,38.6116,54.3445c4.78,28.1033-0.1084,54.7783-15.6099,78.522
		c-28.6819,43.9314-69.3838,69.6738-122.0518,73.2017c-37.728,2.5271-70.7424-10.2793-97.3289-37.9124
		c-7.2085-7.4919-12.9768-16.0391-17.7363-25.271c-9.0901-17.6313-15.1533-36.324-17.6245-55.9326
		C1648.9812,1512.0134,1650.457,1485.4541,1671.033,1463.1172z M1812.1355,1487.2954c0.2314-8.0293-1.6489-16.3711-6.3098-23.9485
		c-4.1147-6.6892-9.3723-10.5313-18.0779-9.2761c-12.4946,1.8015-25.1472,2.4875-37.7202,3.7688
		c-11.1335,1.1348-15.7427,5.9482-14.4587,17.1016c2.1172,18.3962,10.2505,33.52,26.7427,43.2402
		c6.092,3.5906,12.5635,6.0034,19.6917,6.5535c10.2859,0.7937,18.1858-3.1604,23.5549-11.8894
		C1810.1997,1505.2993,1812.2595,1496.9773,1812.1355,1487.2954z M1774.2781,1631.8191c-3.2205,8.342-3.2515,8.6558,3.9731,9.3665
		c23.7793,2.3396,45.4585-3.5908,64.2649-16.7317c-3.335-0.291-7.5664-0.207-11.5515-1.1567
		c-2.9741-0.7083-3.6843,0.0574-5.0605,2.575c-4.3442,7.9465-14.8677,13.2954-21.4961,9.6934
		c-5.0229-2.7292-8.0769-1.407-12.2874,0.4719C1784.2195,1639.5635,1781.0984,1638.6775,1774.2781,1631.8191z M1678.3962,1493.8845
		c5.8647-6.9915,10.5667-12.5596,15.8774-17.5906c3.2583-3.0869,6.9377-5.6238,11.2893-5.7373
		c6.7944-0.1772,8.7693-4.2363,9.9731-9.7986C1699.7554,1460.0137,1682.677,1474.8123,1678.3962,1493.8845z M1836.9036,1465.8394
		c3.2021-2.3855,6.1831-4.6062,9.802-7.302c-4.9519-2.0769-9.0444-3.8328-13.5144-4.2256
		c-0.2585,0.7224-0.4819,1.0181-0.4111,1.1985C1834.083,1458.8359,1835.4214,1462.1479,1836.9036,1465.8394z M1865.2932,1470.5662
		c0.6816,2.7402-1.0127,6.2598,2.1426,7.8926c1.0212,0.5286,3.7769-0.6709,3.9968-2.2502
		C1871.9385,1472.5784,1868.499,1471.8049,1865.2932,1470.5662z M1738.3745,1623.3799c-1.478,0.0493-2.4978,0.9392-2.541,2.2563
		c-0.0435,1.323,0.8728,2.3665,2.4182,2.24c0.97-0.0793,1.7625-0.5393,1.8127-1.7114
		C1740.1208,1624.8499,1739.9724,1623.6782,1738.3745,1623.3799z M1681.2283,1537.301c-0.4287-1.002-1.2837-1.407-2.2043-1.0647
		c-0.4285,0.1592-0.8191,0.9963-0.8416,1.542c-0.0366,0.8896,0.0791,2.0352,1.4893,1.6348
		C1680.6523,1539.1345,1681.1909,1538.3523,1681.2283,1537.301z"/>
	<path fill="#050402" d="M462.9587,868.8456c1.11,0.785,2.1169,1.1955,2.6832,1.9407
		c31.5948,41.5825,69.2455,77.5024,106.7144,113.5342c42.5223,40.8914,85.4479,81.3802,131.6373,118.1966
		c67.7366,53.9915,141.5785,98.323,217.7139,139.332c48.7103,26.2368,100.9072,41.2246,154.0931,53.8933
		c43.1077,10.2681,86.5757,18.762,130.699,23.3608c16.8914,1.7605,33.8408,2.802,50.8711,1.1514
		c10.2517-0.9939,18.5525-4.7473,24.2563-13.616c4.3237-6.7227,9.2146-13.105,13.2141-20.0088
		c45.0134-77.7,82.8247-158.7778,113.5842-243.1409c1.5947-4.374,2.8491-8.8723,4.2603-13.3135
		c2.9734-9.3596,15.0117-15.3822,23.9885-12.0386c3.8696,1.4412,3.447,4.3232,2.6528,7.406
		c-1.9932,7.7385-3.9551,15.4851-5.9475,23.2239c-21.2734,82.6345-47.0698,163.7866-79.4888,242.7739
		c-4.5562,11.1011-9.3735,22.04-15.457,32.4258c-12.7598,21.7825-32.0012,33.0337-56.6963,36.2361
		c-19.9536,2.5876-39.937,1.5388-59.9116,1.2915c-16.3228-0.2019-32.6379-1.0088-48.9568-1.5437
		c-9.4553-0.3101-9.3328-1.3281-9.4954,8.6526c-0.6006,36.8784-10,71.0366-31.8379,101.2822
		c-19.5676,27.1013-45.2366,46.8462-74.7371,61.8862c-33.6082,17.1343-69.4978,26.9502-106.7628,31.5564
		c-48.7328,6.0234-97.2997,4.5542-144.7546-8.7244c-110.4009-30.8914-182.362-102.1174-217.4406-210.7952
		c-17.8661-55.3516-21.5694-112.2524-16.4191-169.9458c3.6619-41.0198,12.3152-80.9468,26.0153-119.7454
		c2.0067-5.6831,0.9203-8.9434-3.4265-12.8071c-16.4551-14.6262-31.4987-30.6725-46.2532-47.0103
		c-19.2318-21.2955-40.8831-40.1642-61.2706-60.3041c-8.7765-8.6698-17.2085-17.6313-25.2564-27.0011
		c-7.7899-9.0693-10.1405-18.3275-3.902-29.1214C458.9688,875.0344,459.5699,871.5929,462.9587,868.8456z M805.9401,1340.012
		c1.3286-0.3936,2.0734-1.2107,1.7972-2.6572c-0.0464-0.2429-0.524-0.6445-0.6533-0.5938c-1.352,0.5315-1.5635,1.6604-1.405,2.9473
		c-0.805,0.3601-0.901,0.7183-0.2458,0.9587C805.5115,1340.6956,805.7668,1340.2419,805.9401,1340.012z M929.2814,1379.7354
		c-1.4119-0.1328-3.3345,0.4285-3.2357,1.4939c0.2688,2.9001,2.4224,0.8303,3.614,0.7092c1.176-0.1196,2.2647-1.0962,3.3918-1.6968
		c9.9933-1.4407,9.9933-1.4407,7.7294-11.1665C936.8281,1372.7395,933.0547,1376.2375,929.2814,1379.7354z M788.0623,1266.1418
		c8.522-1.8508,17.5289-1.4705,25.6022-5.4207c-9.3611-1.9036-18.3466-1.9033-26.0365,4.8491
		c-0.6898,0.2908-1.9965,0.5376-1.4552,1.3625C786.6987,1267.7341,787.5896,1266.8721,788.0623,1266.1418z M619.4163,1065.1362
		c-1.4074,4.4392-2.4516,7.5469-3.3798,10.6887c-11.8474,40.1008-18.9853,81.0232-21.0773,122.7876
		c-2.9368,58.6335,4.1057,115.7869,27.0108,170.2598c29.7012,70.635,79.0334,121.5898,151.1799,149.5566
		c35.3229,13.6924,71.6865,22.6838,109.3792,26.2795c42.4527,4.0498,84.5588,2.5562,125.8859-8.9285
		c29.2246-8.1213,56.2485-20.718,79.0779-41.165c39.0361-34.9629,51.9553-79.9255,49.9348-130.6465
		c-0.2217-5.5713-3.2925-6.2012-7.6748-6.6082c-42.958-3.9895-84.9624-12.4729-125.6754-26.9688
		c-1.1182-0.3982-2.6021-0.9255-3.5264,0.7959c0.8723,8.8267,1.7679,17.7285,2.6279,26.6338
		c0.9039,9.3608-0.0239,18.6758-1.2484,27.9153c-5.299,39.9863-24.0958,70.771-61.2184,88.8994
		c-6.2584,3.0562-12.6487,5.7886-18.1378,10.3389c-3.3302,2.7607-7.8013,4.5144-12.0416,4.3755
		c-8.4988-0.2783-16.4446,2.3625-24.6582,3.4924c-16.018,2.2039-31.8324,1.7959-47.574-2.2878
		c-27.12-7.0361-48.8217-22.6614-67.2346-42.9902c-28.3461-31.2952-45.2695-67.5305-42.8975-110.6179
		c2.1401-38.8779,19.7921-68.5283,55.3626-86.3315c11.9995-6.0059,24.6237-10.0508,37.8313-12.3984
		c2.0031-0.3562,4.809,0.8706,6.127-2.7778C755.201,1183.1311,690.0716,1121.8779,619.4163,1065.1362z M834.8403,1321.4128
		c0.3212,4.9829,0.5555,9.9734,0.9771,14.948c3.6987,43.6492,53.0177,50.53,75.3671,33.9331
		c18.4291-13.6855,25.3705-35.7603,17.4604-58.7024c-1.3912-4.0349-4.6829-7.7244-3.8207-12.1726
		c0.7216-3.7229-1.4079-4.5098-3.7608-5.8298c-12.1959-6.842-24.3933-13.6848-36.4763-20.7229
		c-2.8757-1.675-5.2595-2.1379-8.2873-0.4211c-5.7606,3.2661-11.7396,3.9043-18.2336,1.6304
		c-5.3809-1.8843-9.7174,0.6152-12.9475,5.0891c-2.3654,3.2761-3.9181,6.9424-5.1895,10.75
		C836.5168,1300.1333,835.4025,1310.7026,834.8403,1321.4128z M820.5655,1276.1641c-5.296,1.7527-10.1619,1.8096-14.5789,4.5071
		c-14.6575,8.9529-27.0361,20.2222-36.5222,34.5891c-1.1192,1.6951-2.7297,3.2708-1.917,6.6174
		c3.2628-3.1216,5.9767-5.5334,8.4789-8.1477c6.6472-6.9448,13.4182-13.7898,19.722-21.0381
		c4.4471-5.1138,9.8427-7.9368,16.3718-8.1428C817.4319,1284.3811,819.4872,1281.6755,820.5655,1276.1641z M862.9073,1477.3027
		c8.2623,3.0842,9.765,3.311,12.5474,1.8003c-1.7999-2.1384-0.6204-5.8145-4.1381-7.0928
		C868.8038,1473.5918,866.3536,1475.1338,862.9073,1477.3027z M802.5446,1311.7346c5.1998-0.2688,8.4111-1.5776,6.6518-7.7166
		C806.2172,1305.9934,803.8907,1308.0796,802.5446,1311.7346z M845.5192,1469.78c-0.0287-1.4175-0.1194-3.2766-2.0676-3.7368
		c-2.4549-0.5793-4.9196,0.4082-5.8295,2.6279c-0.762,1.8589,1.5977,2.5225,2.993,3.0801
		C842.5563,1472.5271,844.5536,1472.7239,845.5192,1469.78z M958.559,1323.2874c-0.5547,2.5732-0.9161,3.4915-0.9128,4.4084
		c0.0051,1.4507-0.6221,3.8733,1.5405,3.7371c3.0754-0.1941,1.5839-2.7522,1.3032-4.4121
		C960.3491,1326.1887,959.7036,1325.4419,958.559,1323.2874z M803.881,1442.4482c-1.4612,0.175-2.4593,1.0688-2.3903,2.447
		c0.0673,1.3445,1.2132,2.3499,2.4913,2.5872c1.7193,0.3191,2.0906-1.0994,2.0546-2.387
		C805.9996,1443.7776,805.4442,1442.6355,803.881,1442.4482z M918.9466,1388.4438c1.3077-0.426,2.2631-1.1882,1.9581-2.687
		c-0.0535-0.2629-1.1197-0.5979-1.5659-0.4478c-1.1151,0.3755-2.6212,0.7144-1.9918,2.4497
		C917.4824,1388.1318,918.3919,1388.2239,918.9466,1388.4438z M819.8256,1456.4043c-0.4092,0.3435-0.8184,0.6868-1.2275,1.03
		c0.5818,0.6604,1.0504,1.6689,1.7708,1.9033c1.2178,0.396,1.4877-0.7241,1.3921-1.6538
		C821.6495,1456.6003,820.8207,1456.3081,819.8256,1456.4043z M786.2508,1422.4714c-0.1438-1.0728-0.6359-1.8679-1.8056-1.3596
		c-0.4839,0.2102-1.098,1.127-0.978,1.5127c0.253,0.8145,0.9872,2.1218,1.4586,2.0945
		C785.9558,1424.6597,786.256,1423.5115,786.2508,1422.4714z"/>
	<path fill="#050402" d="M1262.9373,1744.0818c126.2712,1.0598,243.9072,27.4211,352.606,89.1514
		c53.6782,30.4839,102.9763,66.4536,144.0093,113.011c30.4897,34.595,52.5676,74.478,72.2668,115.7661
		c19.03,39.8855,32.6191,81.5186,38.9292,125.4377c4.959,34.5159,4.4922,69.0911,2.3594,103.7297
		c-0.5117,8.3127-1.2932,16.6099-2.0039,24.9094c-0.3469,4.0508-0.72,8.2834-5.6611,9.4597
		c-5.3594,1.2754-7.8296-2.6204-10.1162-6.3525c-3.3276-5.4307-5.5852-11.3804-7.2717-17.4741
		c-6.1265-22.134-12.0745-44.3174-18.0715-66.4871c-7.3943-27.3333-15.8787-54.2966-26.2522-80.675
		c-17.8403-45.3643-45.3577-84.3701-78.4915-119.6016c-70.9524-75.4438-152.0193-137.6167-244.5496-184.4312
		c-42.8486-21.6787-88.6802-34.2275-135.7935-42.5815c-56.0747-9.9434-112.6343-12.4954-169.323-9.4043
		c-113.4624,6.1865-221.7575,32.5232-322.7507,85.9263c-9.798,5.1809-11.9152,4.4507-16.9247-5.3081
		c-6.4016-12.4702-6.2591-12.9868,6.3121-19.0381c66.6639-32.0903,134.3741-61.5664,205.3948-82.8894
		C1118.5554,1755.9285,1190.9167,1744.1042,1262.9373,1744.0818z"/>
	<path fill="#050402" d="M1785.1079,1799.3081c-8.8923,5.8538-17.5854,11.0305-29.1729,6.5215
		c-80.573-31.3521-149.3906-78.7512-202.4702-147.6987c-12.4382-16.1567-22.6873-33.698-30.8271-52.4214
		c-3.6108-8.3062-2.8616-10.0205,5.4954-13.4133c1.8464-0.75,3.7634-1.4019,5.7078-1.8235
		c8.5432-1.853,11.0361-0.5249,14.6599,7.5332c29.5244,65.6516,73.9363,119.1399,132.332,160.988
		c22.8845,16.3997,47.6411,29.2583,75.3389,35.7407C1765.6072,1796.9429,1775.135,1798.2927,1785.1079,1799.3081z"/>
	<path fill="#050402" d="M923.3218,1643.1077c-2.072-0.4219-7.9706,0.9846-8.3053-3.6973c-0.3091-4.323,5.3523-5.198,9.3185-5.4907
		c14.2659-1.053,28.5532-1.5818,42.7836-3.3564c54.5862-6.8071,101.8804-29.2329,142.7181-65.7832
		c11.4216-10.2227,22.1917-21.1028,32.7939-32.158c2.0732-2.1619,4.0466-4.4626,6.3538-6.3477
		c3.9739-3.2471,8.6465-3.4802,11.8726-0.8162c3.9495,3.262,4.0151,7.4558,2.334,11.7903
		c-1.2266,3.1628-3.7048,5.4919-6.1289,7.7905c-44.6343,42.3164-96.75,71.197-156.2149,86.7915
		C975.9815,1638.3516,950.6578,1642,923.3218,1643.1077z"/>
	<path fill="#FEE500" d="M1671.033,1463.1172c-20.5759,22.3369-22.0518,48.8962-18.5935,76.3379
		c2.4712,19.6086,8.5344,38.3013,17.6245,55.9326c4.7595,9.2319,10.5278,17.7791,17.7363,25.271
		c26.5864,27.6331,59.6008,40.4395,97.3289,37.9124c52.668-3.5278,93.3699-29.2703,122.0518-73.2017
		c15.5015-23.7437,20.3899-50.4187,15.6099-78.522c-4.1218-24.2346-17.7427-41.9172-38.6116-54.3445
		c-3.1284-1.863-6.3237-3.614-9.4692-5.4495c-0.2473-0.144-0.3435-0.5469-1.2556-2.0962
		c132.8-17.3499,263.7915-40.9287,391.5571-83.3062c2.4585,14.1692,0.8657,27.1748-1.9392,40.0933
		c-2.1912,10.0933-5.1274,19.9897-8.8855,29.6238c-20.2771,51.9883-46.5879,100.2361-86.8306,139.822
		c-51.5735,50.7322-112.8564,84.5547-182.7415,102.0354c-81.4844,20.3821-162.5386,17.5051-241.7061-11.3152
		c-50.5557-18.4045-93.2866-48.0681-122.1021-94.9604c-17.8335-29.022-26.3513-60.9077-28.4148-94.677
		c-0.4785-7.8301-0.2866-7.9575,7.1873-8.0549C1623.2043,1463.9099,1646.8372,1464.0042,1671.033,1463.1172z"/>
	<path fill="#FEE500" d="M1812.1355,1487.2954c0.124,9.6819-1.9358,18.0039-6.5774,25.55
		c-5.3691,8.729-13.269,12.6831-23.5549,11.8894c-7.1282-0.55-13.5996-2.9629-19.6917-6.5535
		c-16.4922-9.7202-24.6255-24.844-26.7427-43.2402c-1.2839-11.1533,3.3252-15.9668,14.4587-17.1016
		c12.573-1.2813,25.2256-1.9673,37.7202-3.7688c8.7056-1.2551,13.9631,2.5869,18.0779,9.2761
		C1810.4866,1470.9243,1812.3669,1479.2661,1812.1355,1487.2954z"/>
	<path fill="#FEE500" d="M1774.2781,1631.8191c6.8203,6.8584,9.9414,7.7444,17.8425,4.2183
		c4.2104-1.8789,7.2644-3.2012,12.2874-0.4719c6.6284,3.6021,17.1519-1.7468,21.4961-9.6934
		c1.3762-2.5176,2.0864-3.2832,5.0605-2.575c3.9851,0.9497,8.2166,0.8657,11.5515,1.1567
		c-18.8064,13.1409-40.4856,19.0713-64.2649,16.7317C1771.0266,1640.4749,1771.0576,1640.1611,1774.2781,1631.8191z"/>
	<path fill="#FEE500" d="M1678.3962,1493.8845c4.2808-19.0723,21.3591-33.8708,37.1399-33.1265
		c-1.2039,5.5623-3.1787,9.6213-9.9731,9.7986c-4.3516,0.1135-8.031,2.6504-11.2893,5.7373
		C1688.9629,1481.325,1684.261,1486.8931,1678.3962,1493.8845z"/>
	<path fill="#FEE500" d="M1836.9036,1465.8394c-1.4822-3.6914-2.8206-7.0034-4.1235-10.3291
		c-0.0708-0.1804,0.1526-0.4761,0.4111-1.1985c4.47,0.3928,8.5625,2.1487,13.5144,4.2256
		C1843.0867,1461.2332,1840.1057,1463.4539,1836.9036,1465.8394z"/>
	<path fill="#FEE500" d="M1865.2932,1470.5662c3.2058,1.2388,6.6453,2.0122,6.1394,5.6423c-0.22,1.5793-2.9756,2.7788-3.9968,2.2502
		C1864.2805,1476.8259,1865.9749,1473.3064,1865.2932,1470.5662z"/>
	<path fill="#88201F" d="M1738.3684,1623.3816c1.604,0.2966,1.7524,1.4683,1.696,2.7832c-0.0503,1.1721-0.8428,1.6321-1.8127,1.7114
		c-1.5454,0.1265-2.4617-0.917-2.4182-2.24C1735.8767,1624.3191,1736.8965,1623.4292,1738.3684,1623.3816z"/>
	<path fill="#88201F" d="M1681.2271,1537.2942c-0.0361,1.0581-0.5747,1.8403-1.5554,2.1189
		c-1.4102,0.4004-1.5259-0.7451-1.4893-1.6348c0.0225-0.5457,0.4131-1.3828,0.8416-1.542
		C1679.9446,1535.894,1680.7996,1536.2991,1681.2271,1537.2942z"/>
	<path fill="#FEE500" d="M619.4163,1065.1362c70.6553,56.7417,135.7847,117.9949,208.0732,170.3027
		c-1.3179,3.6484-4.1239,2.4216-6.127,2.7778c-13.2076,2.3477-25.8318,6.3926-37.8313,12.3984
		c-35.5706,17.8032-53.2225,47.4536-55.3626,86.3315c-2.3719,43.0874,14.5515,79.3228,42.8975,110.6179
		c18.4129,20.3289,40.1146,35.9541,67.2346,42.9902c15.7416,4.0837,31.556,4.4917,47.574,2.2878
		c8.2136-1.1299,16.1594-3.7708,24.6582-3.4924c4.2403,0.1389,8.7114-1.6147,12.0416-4.3755
		c5.4891-4.5503,11.8793-7.2827,18.1378-10.3389c37.1226-18.1284,55.9194-48.9131,61.2184-88.8994
		c1.2245-9.2395,2.1523-18.5544,1.2484-27.9153c-0.8599-8.9053-1.7556-17.8071-2.6279-26.6338
		c0.9243-1.7214,2.4082-1.1941,3.5264-0.7959c40.713,14.4958,82.7174,22.9792,125.6754,26.9688
		c4.3823,0.407,7.4531,1.0369,7.6748,6.6082c2.0205,50.7209-10.8987,95.6836-49.9348,130.6465
		c-22.8293,20.447-49.8533,33.0437-79.0779,41.165c-41.3271,11.4846-83.4332,12.9783-125.8859,8.9285
		c-37.6926-3.5957-74.0563-12.5872-109.3792-26.2795c-72.1464-27.9668-121.4787-78.9216-151.1799-149.5566
		c-22.9052-54.4729-29.9476-111.6262-27.0108-170.2598c2.092-41.7644,9.2299-82.6868,21.0773-122.7876
		C616.9647,1072.6831,618.0089,1069.5754,619.4163,1065.1362z"/>
	<path fill="#FEE500" d="M834.8403,1321.4128c0.5622-10.7102,1.6766-21.2795,5.0889-31.4983
		c1.2714-3.8076,2.8241-7.4739,5.1895-10.75c3.2301-4.4739,7.5667-6.9734,12.9475-5.0891c6.494,2.2739,12.473,1.6357,18.2336-1.6304
		c3.0278-1.7168,5.4116-1.2539,8.2873,0.4211c12.0829,7.0381,24.2803,13.8809,36.4763,20.7229
		c2.3529,1.3201,4.4824,2.1069,3.7608,5.8298c-0.8621,4.4482,2.4296,8.1377,3.8207,12.1726
		c7.91,22.9421,0.9686,45.0168-17.4604,58.7024c-22.3494,16.5969-71.6684,9.7161-75.3671-33.9331
		C835.3958,1331.3862,835.1614,1326.3958,834.8403,1321.4128z"/>
	<path fill="#FEE500" d="M820.5655,1276.1641c-1.0782,5.5115-3.1335,8.217-8.4454,8.385
		c-6.5291,0.2061-11.9247,3.0291-16.3718,8.1428c-6.3038,7.2483-13.0748,14.0933-19.722,21.0381
		c-2.5022,2.6143-5.2161,5.0261-8.4789,8.1477c-0.8127-3.3467,0.7978-4.9224,1.917-6.6174
		c9.486-14.3669,21.8647-25.6362,36.5222-34.5891C810.4036,1277.9736,815.2695,1277.9167,820.5655,1276.1641z"/>
	<path fill="#88201F" d="M787.6252,1265.5662c7.6927-6.7483,16.6782-6.7485,26.0393-4.845
		c-8.0732,3.9502-17.0802,3.5698-25.6022,5.4207L787.6252,1265.5662z"/>
	<path fill="#FEE500" d="M862.9073,1477.3027c3.4463-2.1689,5.8965-3.7109,8.4094-5.2925c3.5177,1.2783,2.3381,4.9543,4.1381,7.0928
		C872.6723,1480.6138,871.1696,1480.387,862.9073,1477.3027z"/>
	<path fill="#FEE500" d="M929.2813,1379.7354c3.7734-3.4978,7.5468-6.9958,11.4996-10.6602
		c2.2639,9.7258,2.2639,9.7258-7.7161,11.1648C931.8127,1380.0706,930.547,1379.9031,929.2813,1379.7354z"/>
	<path fill="#FEE500" d="M802.5446,1311.7346c1.3461-3.655,3.6726-5.7412,6.6518-7.7166
		C810.9557,1310.157,807.7444,1311.4658,802.5446,1311.7346z"/>
	<path fill="#88201F" d="M845.5192,1469.78c-0.9656,2.9438-2.9629,2.7471-4.9041,1.9712c-1.3953-0.5576-3.7549-1.2212-2.993-3.0801
		c0.9099-2.2197,3.3746-3.2073,5.8295-2.6279C845.3998,1466.5034,845.4905,1468.3625,845.5192,1469.78z"/>
	<path fill="#88201F" d="M958.559,1323.2874c1.1447,2.1545,1.7901,2.9014,1.9308,3.7334c0.2808,1.6599,1.7723,4.218-1.3032,4.4121
		c-2.1625,0.1362-1.5353-2.2864-1.5405-3.7371C957.6428,1326.7788,958.0042,1325.8606,958.559,1323.2874z"/>
	<path fill="#88201F" d="M929.2814,1379.7354c1.2656,0.1677,2.5313,0.3352,3.7835,0.5046
		c-1.1404,0.6023-2.2292,1.5789-3.4052,1.6985c-1.1916,0.1211-3.3452,2.1909-3.614-0.7092
		C925.9468,1380.1638,927.8694,1379.6025,929.2814,1379.7354z"/>
	<path fill="#88201F" d="M803.8771,1442.4478c1.5671,0.1877,2.1225,1.3298,2.1594,2.6477c0.036,1.2876-0.3353,2.7061-2.0546,2.387
		c-1.2781-0.2373-2.424-1.2427-2.4913-2.5872C801.4217,1443.5171,802.4197,1442.6233,803.8771,1442.4478z"/>
	<path fill="#88201F" d="M918.9457,1388.4446c-0.5538-0.2207-1.4633-0.3127-1.5986-0.6858
		c-0.6294-1.7354,0.8768-2.0742,1.9918-2.4497c0.4462-0.1501,1.5124,0.1848,1.5659,0.4478
		C921.2097,1387.2556,920.2543,1388.0178,918.9457,1388.4446z"/>
	<path fill="#FEE500" d="M819.8242,1456.4082c0.9965-0.1001,1.8253,0.1921,1.9367,1.2756c0.0956,0.9297-0.1743,2.0498-1.3921,1.6538
		c-0.7203-0.2344-1.189-1.2429-1.7708-1.9033C819.0072,1457.0911,819.4164,1456.7478,819.8242,1456.4082z"/>
	<path fill="#88201F" d="M786.2473,1422.4705c0.0087,1.041-0.2914,2.1892-1.3215,2.2485c-0.4714,0.0273-1.2056-1.28-1.4586-2.0945
		c-0.1199-0.3857,0.4941-1.3025,0.978-1.5127C785.6149,1420.6035,786.107,1421.3987,786.2473,1422.4705z"/>
	<path fill="#88201F" d="M788.0623,1266.1418c-0.4727,0.7302-1.3636,1.5923-1.8895,0.791c-0.5413-0.825,0.7654-1.0718,1.4538-1.3647
		C787.6252,1265.5662,788.0623,1266.1418,788.0623,1266.1418z"/>
	<path fill="#88201F" d="M805.6753,1339.7046c-0.1547-1.2832,0.0568-2.4121,1.4088-2.9436
		c0.1293-0.0508,0.6069,0.3508,0.6533,0.5938c0.2762,1.4465-0.4686,2.2637-1.7972,2.6572L805.6753,1339.7046z"/>
	<path fill="#88201F" d="M805.9401,1340.012c-0.1733,0.23-0.4286,0.6836-0.5069,0.655c-0.6552-0.2405-0.5592-0.5986,0.244-0.9607
		C805.6753,1339.7046,805.9401,1340.012,805.9401,1340.012z"/>
</g>
</svg>
