<?xml version="1.0" encoding="utf-8"?>
<!-- Generator: Adobe Illustrator 18.1.1, SVG Export Plug-In . SVG Version: 6.00 Build 0)  -->
<svg version="1.1" id="Layer_1" xmlns="http://www.w3.org/2000/svg" xmlns:xlink="http://www.w3.org/1999/xlink" x="0px" y="0px"
	 viewBox="0 0 620.6 469.4" enable-background="new 0 0 620.6 469.4" xml:space="preserve">
<path fill="#FFFF00" stroke="#000000" stroke-width="5" stroke-miterlimit="10" d="M275.2,27.8c116.2,0.9,210.6,96,214.7,209.8
	c4.3,119.3-91.8,222-209.8,225.5C153.9,466.8,49.9,355.6,57.5,231.8C64.4,121.1,158.7,27,275.2,27.8z"/>
<circle fill="#ED1C24" stroke="#000000" stroke-width="9" stroke-miterlimit="10" cx="163.6" cy="159.2" r="24.5"/>
<circle fill="#ED1C24" stroke="#000000" stroke-width="9" stroke-miterlimit="10" cx="371.6" cy="159.2" r="24.5"/>
<path fill="none" stroke="#000000" stroke-width="5" stroke-miterlimit="10" d="M120.5,111.2c13.4-14.1,22.7-15.6,28.4-14.7
	c12.7,2,16,16.7,32.4,29.4c13.2,10.2,27.7,13.5,37.3,14.7"/>
<path fill="none" stroke="#000000" stroke-width="5" stroke-miterlimit="10" d="M420.6,105.3c-13.4-14.1-22.7-15.6-28.4-14.7
	c-12.7,2-16,16.7-32.4,29.4c-13.2,10.2-27.7,13.5-37.3,14.7"/>
<path fill="none" stroke="#000000" stroke-width="5" stroke-miterlimit="10" d="M117.5,43.5C78.1,43,62.6,53.9,55.8,64.1
	c-14.6,21.9,9.4,42.9-1,84.3c-8.4,33.5-29,39-31.4,70.6c-1.5,20.3,5.5,37.5,11.8,49"/>
<path fill="none" stroke="#000000" stroke-width="5" stroke-miterlimit="10" d="M102.8,13.1C79.9,10,68.7,15.5,62.6,21
	c-16.1,14.6-6.8,39.5-25.5,53.9c-11.2,8.6-22,5.3-24.5,12.7c-3.6,10.7,17.7,20,18.6,36.3c0.5,8.7-4.8,21.5-32.4,38.2"/>
<path fill="none" stroke="#000000" stroke-width="5" stroke-miterlimit="10" d="M497.4,245.7c21.9-7.4,29.5-17.4,32.4-25
	c7.9-20.3-11.6-38.4-1.3-59.6c6.2-12.8,17.3-14.6,16.2-22.4c-1.6-11.1-24.8-9.9-32.9-24.1c-4.3-7.6-5.3-21.4,11.8-48.7"/>
<path fill="none" stroke="#000000" stroke-width="5" stroke-miterlimit="10" d="M544.8,268c38.1-10,50.2-24.6,54-36.3
	c8.2-25-20.5-38.9-21.6-81.5c-0.8-34.5,17.5-45.3,11.4-76.4c-3.9-20-15.3-34.7-24.4-44.1"/>
<path fill="#C7B299" stroke="#000000" stroke-width="5" stroke-miterlimit="10" d="M266.6,275.9c56.2-0.1,124.3-0.3,146.1,41.2
	c12.3,23.4,8.7,57.2-5.9,65.7c-10.9,6.3-23.1-4.1-59.9-15.7c-8.3-2.7-37.5-11.9-60.7-13.7c-62.2-4.7-87.1,46-121.6,31.4
	c-26.6-11.3-44.1-48.6-35.3-72.5C142.6,276.2,213.6,276,266.6,275.9z"/>
<polyline fill="none" stroke="#000000" stroke-width="5" stroke-miterlimit="10" points="139.1,298.2 139.1,331.7 163.6,331.7 
	396.1,331.7 396.1,298 "/>
<polyline fill="none" stroke="#000000" stroke-width="5" stroke-miterlimit="10" points="396.1,384.4 396.1,331.7 139.1,331.7 
	139.1,362.6 "/>
<line fill="none" stroke="#000000" stroke-width="5" stroke-miterlimit="10" x1="177.9" y1="281.6" x2="177.9" y2="387.4"/>
<line fill="none" stroke="#000000" stroke-width="5" stroke-miterlimit="10" x1="218.5" y1="275.9" x2="218.5" y2="370.9"/>
<line fill="none" stroke="#000000" stroke-width="5" stroke-miterlimit="10" x1="258.7" y1="275.9" x2="258.7" y2="354.9"/>
<line fill="none" stroke="#000000" stroke-width="5" stroke-miterlimit="10" x1="296" y1="276.1" x2="296" y2="354.5"/>
<line fill="none" stroke="#000000" stroke-width="5" stroke-miterlimit="10" x1="335.3" y1="278.4" x2="335.3" y2="363.5"/>
<line fill="none" stroke="#000000" stroke-width="5" stroke-miterlimit="10" x1="368.4" y1="284.8" x2="368.4" y2="370.9"/>
</svg>
