<svg xmlns="http://www.w3.org/2000/svg" viewBox="0 0 106 106"><defs><style>.cls-1{fill:#ff7575;}.cls-2{opacity:0.25;}.cls-3{fill:#171c1f;}.cls-4{fill:#fff;}.cls-5{fill:#70cbf6;}.cls-6{opacity:0.1;}</style></defs><title>angry-face</title><g id="Angry-Face"><g id="Fill"><circle class="cls-1" cx="53" cy="53" r="51"/></g><g id="Mouth" class="cls-2"><path class="cls-3" d="M79,63.24a2.06,2.06,0,0,0-.5.06,55.13,55.13,0,0,1-13,1.72,28,28,0,0,1-12.38-2.51A28,28,0,0,0,40.71,60a55.89,55.89,0,0,0-14.25,2A2,2,0,0,0,25,64.2C25.55,69.06,29.66,87,46.67,87a29.66,29.66,0,0,0,7-.91c22.6-5.53,26.17-14,27.26-20.5A2,2,0,0,0,79,63.24Z"/></g><g id="White"><path class="cls-4" d="M35,50a11,11,0,0,0,9.72-5.86L29.86,29.28A11,11,0,0,0,35,50Zm36,0a11,11,0,0,0,5.14-20.72L61.28,44.14A11,11,0,0,0,71,50Zm8.92,12.35a2.14,2.14,0,0,0-.52.07A57,57,0,0,1,65.91,64.2a29,29,0,0,1-12.82-2.61A29,29,0,0,0,40.27,59,57.79,57.79,0,0,0,25.51,61.1,2.08,2.08,0,0,0,24,63.34c.22,2-.34,1.92,1.54,6.06,1.42-.71,5.78-2,7.72-1.56,1.11.28,3.44,5.49,4.15,5.18s1.53-6.32,3.11-6.22,12.68.13,19.2,4.15c2,1.42,1.21,5.48,3.18,5.8s2.31-4.66,6-4.92c2.72-.19,5.07-.61,7.47-.82,3.52-1.13,4.58.89,5.62-6.24A2.09,2.09,0,0,0,79.92,62.35Z"/></g><g id="Blue"><path class="cls-5" d="M29,39a6,6,0,0,0,11.86,1.27l-7.13-7.13A6,6,0,0,0,29,39Zm6-2a2,2,0,1,1-2-2A2,2,0,0,1,35,37Zm37.27-3.86-2.18,2.18a2,2,0,1,1-2.76,2.76l-2.18,2.18a6,6,0,1,0,7.13-7.13Z"/></g><g id="Inner_Lines_1" data-name="Inner Lines 1"><path class="cls-3" d="M35,51a12,12,0,0,0,10.45-6.13l1.84,1.84a1,1,0,1,0,1.41-1.41l-20-20a1,1,0,0,0-1.41,1.41l1.84,1.84A12,12,0,0,0,35,51ZM30.62,30,44,43.38A10,10,0,1,1,30.62,30ZM58,47a1,1,0,0,0,.71-.29l1.84-1.84A12,12,0,1,0,76.87,28.55l1.84-1.84a1,1,0,0,0-1.41-1.41l-20,20A1,1,0,0,0,58,47ZM75.38,30A10,10,0,1,1,62,43.38ZM79,61.23a4.09,4.09,0,0,0-1,.12A52.65,52.65,0,0,1,65.45,63,25.74,25.74,0,0,1,54,60.71,29.67,29.67,0,0,0,40.72,58,57.61,57.61,0,0,0,26,60.1,4,4,0,0,0,23,64.42,35.75,35.75,0,0,0,28,78.5C32.33,85.38,38.8,89,46.68,89a31.74,31.74,0,0,0,7.52-1C77.34,82.37,81.71,73.23,82.94,65.9A4,4,0,0,0,82,62.66,4,4,0,0,0,79,61.23ZM53.72,86.09a29.58,29.58,0,0,1-7,.91C34,87,28.48,77,26.28,69.9c1.2-.28,3.47-.7,6.52-1.2A14,14,0,0,1,34,70.63c1.06,1.84,1.91,3.3,3.19,3.17s1.67-1.63,2.24-3.56A13.83,13.83,0,0,1,40.25,68,32.26,32.26,0,0,1,52,70a46.3,46.3,0,0,0,5.77,1.57c.75.16,1.4.31,1.92.46a10.45,10.45,0,0,1,.85,2.16c.57,1.78,1.07,3.32,2.3,3.49l.23,0c1.23,0,2.25-1.33,3.33-2.72A10.06,10.06,0,0,1,68,73.06a41,41,0,0,0,10.84-1.82l.35-.09C76.57,76.42,70.22,82,53.72,86.09ZM81,65.57a21.5,21.5,0,0,1-.88,3.54L80,68.85l-1.68.45A38.76,38.76,0,0,1,68,71c-1.19,0-2.14,1.23-3.24,2.65a15.15,15.15,0,0,1-1.59,1.87,13.58,13.58,0,0,1-.77-2c-.56-1.75-1-3.13-2.09-3.45-.61-.18-1.33-.34-2.16-.52a44.7,44.7,0,0,1-5.54-1.5A34.07,34.07,0,0,0,39.95,66c-1.34,0-1.82,1.63-2.41,3.67-.15.53-.38,1.31-.59,1.81a19.94,19.94,0,0,1-1.16-1.86c-1-1.76-1.82-3.15-3.06-3-2.37.39-5.39.9-7,1.29A29.9,29.9,0,0,1,25,64.2,2,2,0,0,1,26.49,62a55.74,55.74,0,0,1,14.23-2,27.94,27.94,0,0,1,12.36,2.52A27.94,27.94,0,0,0,65.45,65a55,55,0,0,0,13-1.72,2.06,2.06,0,0,1,.5-.06A2,2,0,0,1,81,65.57Z"/></g><g id="Inner_Lines_2" data-name="Inner Lines 2" class="cls-6"><path d="M39,39a4.08,4.08,0,1,1-3.35-3.93l-1.92-1.92a6,6,0,1,0,7.13,7.13l-1.92-1.92A4,4,0,0,1,39,39Zm33.27-5.86-1.92,1.92a4.08,4.08,0,1,1-3.28,3.28l-1.92,1.92a6,6,0,1,0,7.13-7.13Z"/></g><g id="Shadows" class="cls-6"><path d="M102,52A49,49,0,0,1,4,52c0,.33,0,.66,0,1a49,49,0,0,0,98,0C102,52.66,102,52.33,102,52ZM35,55a12,12,0,0,0,11.6-9l-1.15-1.15A12,12,0,0,1,23.18,41,11.93,11.93,0,0,0,35,55Zm36,0A11.93,11.93,0,0,0,82.82,41a12,12,0,0,1-22.27,3.87L59.4,46A12,12,0,0,0,71,55ZM37.77,69.63c-.15.54-.38,1.32-.58,1.83A20.36,20.36,0,0,1,36,69.58c-1-1.75-1.69-3-2.81-3l-.22,0c-2.58.43-6,1-7.36,1.43l-.73.21v.12a38.51,38.51,0,0,0,1.92,5.56c1.23-.29,3.38-.69,6.24-1.17a14.22,14.22,0,0,1,1.23,2c1,1.8,1.81,3.22,3,3.22h.13c1.21-.12,1.65-1.66,2.21-3.61A14.27,14.27,0,0,1,40.45,72,30.87,30.87,0,0,1,52,74a44.89,44.89,0,0,0,5.7,1.6c.74.17,1.38.31,1.9.46a10.77,10.77,0,0,1,.84,2.19c.56,1.81,1.05,3.37,2.28,3.54h.22c1.23,0,2.19-1.28,3.3-2.76a10.1,10.1,0,0,1,1.63-1.9,35.09,35.09,0,0,0,9-1.36,18.63,18.63,0,0,0,4.12-6.65v-.66l-1.24.32-1.65.45A37.38,37.38,0,0,1,67.87,71c-1.18,0-2.12,1.25-3.2,2.69a15.31,15.31,0,0,1-1.57,1.9,14,14,0,0,1-.76-2.07c-.55-1.77-1-3.17-2.07-3.5-.6-.18-1.31-.34-2.13-.53A43.11,43.11,0,0,1,52.67,68a32.89,32.89,0,0,0-12.52-2.08C38.83,65.93,38.36,67.57,37.77,69.63Z"/></g><g id="Outline"><path class="cls-3" d="M53,0a53,53,0,1,0,53,53A53,53,0,0,0,53,0Zm0,102a49,49,0,1,1,49-49A49,49,0,0,1,53,102Z"/></g></g></svg>